<svg xmlns="http://www.w3.org/2000/svg" xmlns:xlink="http://www.w3.org/1999/xlink" width="2000" zoomAndPan="magnify" viewBox="0 0 1500 1499.999933" height="2000" preserveAspectRatio="xMidYMid meet" version="1.0"><defs><clipPath id="17594c2852"><path d="M 219 138 L 1281 138 L 1281 1363 L 219 1363 Z M 219 138 " clip-rule="nonzero"/></clipPath><clipPath id="54b8532e46"><path d="M 1293.480469 123.351562 L 1294.519531 1375.851562 L 206.273438 1376.757812 L 205.230469 124.257812 Z M 1293.480469 123.351562 " clip-rule="nonzero"/></clipPath><clipPath id="b1eb427651"><path d="M 1293.480469 123.351562 L 1294.519531 1375.851562 L 206.273438 1376.757812 L 205.230469 124.257812 Z M 1293.480469 123.351562 " clip-rule="nonzero"/></clipPath><clipPath id="a93f33dba0"><path d="M 205 124 L 1294 124 L 1294 1376 L 205 1376 Z M 205 124 " clip-rule="nonzero"/></clipPath><clipPath id="ca5b52b1d5"><path d="M 1293.480469 123.351562 L 1294.519531 1375.851562 L 206.273438 1376.757812 L 205.230469 124.257812 Z M 1293.480469 123.351562 " clip-rule="nonzero"/></clipPath><clipPath id="34794960e5"><path d="M 1293.480469 123.351562 L 1294.519531 1375.851562 L 206.273438 1376.757812 L 205.230469 124.257812 Z M 1293.480469 123.351562 " clip-rule="nonzero"/></clipPath><clipPath id="64fd9e3d0e"><path d="M 219 138 L 1281 138 L 1281 1363 L 219 1363 Z M 219 138 " clip-rule="nonzero"/></clipPath><clipPath id="5c9942061a"><path d="M 1293.480469 123.351562 L 1294.519531 1375.851562 L 206.273438 1376.757812 L 205.230469 124.257812 Z M 1293.480469 123.351562 " clip-rule="nonzero"/></clipPath><clipPath id="9125c4e9c4"><path d="M 1293.480469 123.351562 L 1294.519531 1375.851562 L 206.273438 1376.757812 L 205.230469 124.257812 Z M 1293.480469 123.351562 " clip-rule="nonzero"/></clipPath><clipPath id="107355caa6"><path d="M 205 124 L 1294 124 L 1294 1376 L 205 1376 Z M 205 124 " clip-rule="nonzero"/></clipPath><clipPath id="e53a263393"><path d="M 1293.480469 123.351562 L 1294.519531 1375.851562 L 206.273438 1376.757812 L 205.230469 124.257812 Z M 1293.480469 123.351562 " clip-rule="nonzero"/></clipPath><clipPath id="579dff4d54"><path d="M 1293.480469 123.351562 L 1294.519531 1375.851562 L 206.273438 1376.757812 L 205.230469 124.257812 Z M 1293.480469 123.351562 " clip-rule="nonzero"/></clipPath></defs><g clip-path="url(#17594c2852)"><g clip-path="url(#54b8532e46)"><g clip-path="url(#b1eb427651)"><path fill="#d0a636" d="M 219.179688 138.019531 L 1280.226562 749.441406 L 220.199219 1362.625 Z M 219.179688 138.019531 " fill-opacity="1" fill-rule="nonzero"/></g></g></g><g clip-path="url(#a93f33dba0)"><g clip-path="url(#ca5b52b1d5)"><g clip-path="url(#34794960e5)"><path fill="#d0a636" d="M 206.871094 1362.636719 L 205.851562 138.03125 C 205.847656 133.269531 208.382812 128.867188 212.503906 126.484375 C 216.625 124.097656 221.707031 124.09375 225.832031 126.472656 L 1286.882812 737.890625 C 1291.007812 740.269531 1293.550781 744.667969 1293.554688 749.429688 C 1293.558594 754.191406 1291.023438 758.589844 1286.902344 760.976562 L 226.871094 1374.164062 C 222.75 1376.546875 217.667969 1376.550781 213.542969 1374.171875 C 209.417969 1371.796875 206.875 1367.398438 206.871094 1362.636719 Z M 232.527344 161.09375 L 233.507812 1339.527344 L 1253.574219 749.460938 Z M 232.527344 161.09375 " fill-opacity="1" fill-rule="nonzero"/></g></g></g><g clip-path="url(#64fd9e3d0e)"><g clip-path="url(#5c9942061a)"><g clip-path="url(#9125c4e9c4)"><path fill="#d0a636" d="M 219.179688 138.019531 L 1280.226562 749.441406 L 220.199219 1362.625 Z M 219.179688 138.019531 " fill-opacity="1" fill-rule="nonzero"/></g></g></g><g clip-path="url(#107355caa6)"><g clip-path="url(#e53a263393)"><g clip-path="url(#579dff4d54)"><path fill="#d0a636" d="M 206.871094 1362.636719 L 205.851562 138.03125 C 205.847656 133.269531 208.382812 128.867188 212.503906 126.484375 C 216.625 124.097656 221.707031 124.09375 225.832031 126.472656 L 1286.882812 737.890625 C 1291.007812 740.269531 1293.550781 744.667969 1293.554688 749.429688 C 1293.558594 754.191406 1291.023438 758.589844 1286.902344 760.976562 L 226.871094 1374.164062 C 222.75 1376.546875 217.667969 1376.550781 213.542969 1374.171875 C 209.417969 1371.796875 206.875 1367.398438 206.871094 1362.636719 Z M 232.527344 161.09375 L 233.507812 1339.527344 L 1253.574219 749.460938 Z M 232.527344 161.09375 " fill-opacity="1" fill-rule="nonzero"/></g></g></g></svg>